<?xml version="1.0" encoding="utf-8"?>
<svg xmlns="http://www.w3.org/2000/svg" viewBox="0 0 50 50" width="500" height="500">
  <path d="M48.808594 22.09375L27.90625 1.191406C26.378906 -0.335938 23.691406 -0.375 21.992188 1.195313L1.191406 22.09375C-0.398438 23.683594 -0.410156 26.269531 1.191406 28.007813L21.992188 48.808594C22.761719 49.574219 23.800781 50 24.914063 50C26.011719 50 27.066406 49.585938 27.90625 48.808594L48.707031 28.007813C50.363281 26.347656 50.410156 23.695313 48.808594 22.09375 Z M 23.398438 14.398438C23.398438 14.199219 23.5 14 23.800781 14L26.101563 14C26.300781 14 26.5 14.101563 26.5 14.398438L26.5 28.898438C26.5 29.097656 26.398438 29.300781 26.101563 29.300781L23.800781 29.300781C23.601563 29.300781 23.398438 29.199219 23.398438 28.898438 Z M 26.601563 35.699219C26.601563 35.898438 26.5 36.097656 26.199219 36.097656L23.800781 36.097656C23.601563 36.097656 23.402344 36 23.402344 35.699219L23.402344 33C23.402344 32.800781 23.5 32.601563 23.800781 32.601563L26.199219 32.601563L26.199219 32.699219C26.402344 32.699219 26.601563 32.800781 26.601563 33.097656Z" fill="#FF4600" />
</svg>