<?xml version="1.0" encoding="utf-8"?>
<svg xmlns="http://www.w3.org/2000/svg" viewBox="0 0 50 50" width="500" height="500">
  <path d="M24.90625 7.96875C24.863281 7.976563 24.820313 7.988281 24.78125 8C24.316406 8.105469 23.988281 8.523438 24 9L24 38.53125L14.8125 29.34375C14.625 29.144531 14.367188 29.035156 14.09375 29.03125C13.6875 29.035156 13.324219 29.28125 13.171875 29.660156C13.023438 30.035156 13.113281 30.46875 13.40625 30.75L24.28125 41.65625L25 42.34375L25.71875 41.65625L36.59375 30.75C36.890625 30.507813 37.027344 30.121094 36.941406 29.746094C36.855469 29.375 36.5625 29.082031 36.191406 28.996094C35.816406 28.910156 35.429688 29.046875 35.1875 29.34375L26 38.53125L26 9C26.011719 8.710938 25.894531 8.433594 25.6875 8.238281C25.476563 8.039063 25.191406 7.941406 24.90625 7.96875Z" fill="#FFFFFF" />
</svg>