<?xml version="1.0" encoding="utf-8"?>
<svg xmlns="http://www.w3.org/2000/svg" viewBox="0 0 50 50" width="500" height="500">
  <path d="M9.9375 0.53125L9.21875 1.21875L1.21875 9.21875L0.53125 9.9375L1.21875 10.65625L16.84375 26.28125L4.3125 38.8125C4.183594 38.929688 4.085938 39.082031 4.03125 39.25L2.03125 46.75C1.941406 47.09375 2.042969 47.457031 2.292969 47.707031C2.542969 47.957031 2.90625 48.058594 3.25 47.96875L10.75 45.96875C10.917969 45.914063 11.070313 45.816406 11.1875 45.6875L45.75 11.125C45.746094 11.128906 46.5625 10.3125 46.5625 10.3125C48.464844 8.410156 48.460938 5.335938 46.5625 3.4375C44.660156 1.535156 41.589844 1.539063 39.6875 3.4375L26.28125 16.84375L10.65625 1.21875 Z M 9.9375 3.375L11.5625 5L10.28125 6.28125L11.71875 7.71875L13 6.4375L14.5625 8L12.28125 10.28125L13.71875 11.71875L16 9.4375L17.5625 11L16.28125 12.28125L17.71875 13.71875L19 12.4375L20.5625 14L18.28125 16.28125L19.71875 17.71875L22 15.4375L23.5625 17L22.28125 18.28125L23.5625 19.5625L18.28125 24.84375L3.375 9.9375 Z M 40.28125 5.65625L44.34375 9.71875L9.96875 44.09375L5.90625 40.03125 Z M 34 24.59375L33.28125 25.28125L31.28125 27.28125L32.71875 28.71875L34 27.4375L35.5625 29L33.28125 31.28125L34.71875 32.71875L37 30.4375L38.5625 32L37.28125 33.28125L38.71875 34.71875L40 33.4375L41.5625 35L39.28125 37.28125L40.71875 38.71875L43 36.4375L44.5625 38L43.28125 39.28125L44.71875 40.71875L46 39.4375L46.625 40.0625L40.0625 46.625L26 32.59375L24.59375 34L39.34375 48.78125L40.0625 49.46875L40.78125 48.78125L48.78125 40.78125L49.46875 40.0625L48.78125 39.34375Z" fill="#FFFFFF" />
</svg>