<?xml version="1.0" encoding="utf-8"?>
<svg xmlns="http://www.w3.org/2000/svg" viewBox="0 0 50 50" width="500" height="500">
  <path d="M25 2C12.309534 2 2 12.309534 2 25C2 37.690466 12.309534 48 25 48C37.690466 48 48 37.690466 48 25 A 1.0001 1.0001 0 1 0 46 25C46 36.609534 36.609534 46 25 46C13.390466 46 4 36.609534 4 25C4 13.390466 13.390466 4 25 4C31.692686 4 37.635193 7.130711 41.480469 12L35 12 A 1.0001 1.0001 0 1 0 35 14L43.449219 14L45 14L45 4 A 1.0001 1.0001 0 0 0 43.984375 2.9863281 A 1.0001 1.0001 0 0 0 43 4L43 10.699219C38.785186 5.4020866 32.287796 2 25 2 z" fill="#FFFFFF" />
</svg>