<?xml version="1.0" encoding="utf-8"?>
<svg xmlns="http://www.w3.org/2000/svg" viewBox="0 0 30 30" width="480" height="480">
  <path d="M15 3C8.9134751 3 3.87999 7.5533546 3.1132812 13.439453 A 1.0001 1.0001 0 1 0 5.0957031 13.697266C5.7349943 8.7893639 9.9085249 5 15 5C17.766872 5 20.250574 6.1285473 22.058594 7.9414062L20 10L26 11L25 5L23.470703 6.5292969C21.300701 4.3575454 18.309289 3 15 3 z M 25.912109 15.417969 A 1.0001 1.0001 0 0 0 24.904297 16.302734C24.265006 21.210636 20.091475 25 15 25C11.977904 25 9.2987537 23.65024 7.4648438 21.535156L9 20L3 19L4 25L6.0488281 22.951172C8.2452659 25.422716 11.436061 27 15 27C21.086525 27 26.12001 22.446646 26.886719 16.560547 A 1.0001 1.0001 0 0 0 25.912109 15.417969 z" fill="#FFFFFF" />
</svg>