<?xml version="1.0" encoding="utf-8"?>
<svg xmlns="http://www.w3.org/2000/svg" viewBox="0 0 50 50" width="500" height="500">
  <path d="M25 5C14.351563 5 5.632813 13.378906 5.054688 23.890625C5.007813 24.609375 5.347656 25.296875 5.949219 25.695313C6.550781 26.089844 7.320313 26.132813 7.960938 25.804688C8.601563 25.476563 9.019531 24.828125 9.046875 24.109375C9.511719 15.675781 16.441406 9 25 9C29.585938 9 33.699219 10.925781 36.609375 14L34 14C33.277344 13.988281 32.609375 14.367188 32.246094 14.992188C31.878906 15.613281 31.878906 16.386719 32.246094 17.007813C32.609375 17.632813 33.277344 18.011719 34 18L40.261719 18C40.488281 18.039063 40.71875 18.039063 40.949219 18L44 18L44 8C44.007813 7.460938 43.796875 6.941406 43.414063 6.558594C43.03125 6.175781 42.511719 5.964844 41.96875 5.972656C40.867188 5.988281 39.984375 6.894531 40 8L40 11.777344C36.332031 7.621094 30.964844 5 25 5 Z M 43.03125 23.972656C41.925781 23.925781 40.996094 24.785156 40.953125 25.890625C40.488281 34.324219 33.558594 41 25 41C20.414063 41 16.304688 39.074219 13.390625 36L16 36C16.722656 36.011719 17.390625 35.632813 17.753906 35.007813C18.121094 34.386719 18.121094 33.613281 17.753906 32.992188C17.390625 32.367188 16.722656 31.988281 16 32L9.71875 32C9.507813 31.96875 9.296875 31.96875 9.085938 32L6 32L6 42C5.988281 42.722656 6.367188 43.390625 6.992188 43.753906C7.613281 44.121094 8.386719 44.121094 9.007813 43.753906C9.632813 43.390625 10.011719 42.722656 10 42L10 38.222656C13.667969 42.378906 19.035156 45 25 45C35.648438 45 44.367188 36.621094 44.945313 26.109375C44.984375 25.570313 44.800781 25.039063 44.441406 24.636719C44.078125 24.234375 43.570313 23.996094 43.03125 23.972656Z" fill="#FFFFFF" />
</svg>