<?xml version="1.0" encoding="utf-8"?>
<svg xmlns="http://www.w3.org/2000/svg" viewBox="0 0 50 50" width="500" height="500">
  <path d="M19.8125 1.96875L19.59375 2.09375L8.59375 7.09375L8.28125 7.21875L8.125 7.53125L2.125 18.53125L1.96875 18.78125L2 19.0625L3 34.0625L3.03125 34.40625L3.25 34.6875L13.25 45.6875L13.5 45.9375L13.84375 46L27.84375 48L28.125 48.03125L28.375 47.9375L40.375 42.9375L40.65625 42.8125L45.8125 35.59375L45.9375 35.375L46 35.15625L48 22.15625L48.03125 21.90625L47.9375 21.65625L43.9375 10.65625L43.84375 10.375L43.5625 10.1875L33.5625 3.1875L33.34375 3.03125L33.0625 3L20.0625 2 Z M 19.84375 4.15625L22.34375 6.15625L14.375 6.65625 Z M 23.15625 4.25L28.4375 4.65625L25.1875 5.875 Z M 32.59375 5.21875L36.28125 10.75L27.65625 7.0625 Z M 36.78125 7.84375L41.03125 10.84375L39.34375 11.6875 Z M 22.65625 8.15625L16.96875 14.53125L11.3125 8.875 Z M 26.53125 8.71875L37.09375 13.25L29.5625 19.28125 Z M 24.53125 9.03125L27.46875 19.25L18.6875 15.59375 Z M 9.875 10.3125L15.625 16.0625L9.15625 23.21875 Z M 7.75 12.375L7.15625 23.09375L4.1875 18.9375 Z M 42.4375 12.40625L45.71875 21.40625L42.65625 22.65625L40.1875 13.53125 Z M 38.4375 14.71875L40.59375 22.65625L31.21875 20.5 Z M 18.09375 17.5625L27.21875 21.34375L18.875 29.6875 Z M 16.15625 18.4375L16.875 30.1875L9.53125 25.78125 Z M 30.40625 22.34375L40.28125 24.625L33.4375 33.71875 Z M 4.25 22.46875L6.84375 26.09375L4.75 30.25 Z M 28.5 22.9375L31.59375 34.5625L19.96875 31.46875 Z M 45.71875 23.59375L44.71875 30.1875L43.1875 24.59375 Z M 41.5625 26.25L43.71875 34.09375L35.15625 34.8125 Z M 9.59375 28.09375L16.1875 32.0625L11.59375 35.34375 Z M 7.71875 28.8125L9.5 35.28125L5.375 33.5 Z M 17.71875 33.4375L22.4375 40.8125L13.03125 36.78125 Z M 20.25 33.625L30.9375 36.46875L25.21875 41.46875 Z M 42.90625 36.1875L39.8125 40.53125L35.46875 36.8125 Z M 7.84375 36.71875L10.21875 37.75L11.25 40.46875 Z M 33 37.3125L37.5 41.15625L27.875 41.8125 Z M 12.75 38.84375L21.59375 42.625L14.625 43.875 Z M 34.03125 43.40625L28.34375 45.78125L26.90625 43.875 Z M 24.5625 44.09375L25.75 45.65625L20.21875 44.875Z" fill="#FFFFFF" />
</svg>